<svg width="128" height="133" viewBox="0 0 128 133" fill="none" xmlns="http://www.w3.org/2000/svg">
<path d="M32.7109 33.8392H56.1775V58.115H32.7109V33.8392ZM95.2886 33.8392V58.115H71.822V33.8392H95.2886ZM71.822 78.3449H79.6442V70.253H71.822V62.161H79.6442V70.253H87.4664V62.161H95.2886V70.253H87.4664V78.3449H95.2886V90.4829H87.4664V98.5748H79.6442V90.4829H67.9109V98.5748H60.0886V82.3909H71.822V78.3449ZM79.6442 78.3449V90.4829H87.4664V78.3449H79.6442ZM32.7109 98.5748V74.299H56.1775V98.5748H32.7109ZM40.5331 41.9311V50.0231H48.3553V41.9311H40.5331ZM79.6442 41.9311V50.0231H87.4664V41.9311H79.6442ZM40.5331 82.3909V90.4829H48.3553V82.3909H40.5331ZM32.7109 62.161H40.5331V70.253H32.7109V62.161ZM52.2664 62.161H67.9109V78.3449H60.0886V70.253H52.2664V62.161ZM60.0886 41.9311H67.9109V58.115H60.0886V41.9311ZM24.8886 25.7472V41.9311H17.0664V25.7472C17.0664 23.6011 17.8905 21.5429 19.3575 20.0254C20.8244 18.5078 22.814 17.6553 24.8886 17.6553H40.5331V25.7472H24.8886ZM103.111 17.6553C105.185 17.6553 107.175 18.5078 108.642 20.0254C110.109 21.5429 110.933 23.6011 110.933 25.7472V41.9311H103.111V25.7472H87.4664V17.6553H103.111ZM24.8886 90.4829V106.667H40.5331V114.759H24.8886C22.814 114.759 20.8244 113.906 19.3575 112.389C17.8905 110.871 17.0664 108.813 17.0664 106.667V90.4829H24.8886ZM103.111 106.667V90.4829H110.933V106.667C110.933 108.813 110.109 110.871 108.642 112.389C107.175 113.906 105.185 114.759 103.111 114.759H87.4664V106.667H103.111Z" fill="black"/>
<rect x="3" y="3" width="122" height="126.414" stroke="black" stroke-width="6"/>
</svg>
